# xmcd
#
# Track frame offsets: 
#        182
#        13697
#        26165
#        37767
#        51882
#        64150
#        75197
#        88710
#        100225
#        111370
#        123055
#        138072
#
# Disc length: 1985 seconds
#
# Revision: 0
# Processed by: cddbd v1.5.2PL0 Copyright (c) Steve Scherf et al.
# Submitted via: ExactAudioCopy v1.1
#
DISCID=8b07bf0c
DTITLE=Glen Campbell - Glen Campbell Best of the Early Years
DYEAR=1991
DGENRE=Country
TTITLE0=Gentle on My Mind
TTITLE1=By the Time I Get to Phoenix
TTITLE2=Hey Little One
TTITLE3=Wichita Lineman
TTITLE4=Galveston
TTITLE5=Try a Little Kindness
TTITLE6=Honey Come Back
TTITLE7=Everything a Man Could Ever Need
TTITLE8=It's Only Make Believe
TTITLE9=Dream Baby (How Long Must I Dream)
TTITLE10=Your Cheatin' Heart
TTITLE11=I'm So Lonesome I Could Cry
EXTD=Original recordings
EXTT0=
EXTT1=
EXTT2=
EXTT3=
EXTT4=
EXTT5=
EXTT6=
EXTT7=
EXTT8=
EXTT9=
EXTT10=
EXTT11=
PLAYORDER=
